<?xml version="1.0" standalone="no"?><!DOCTYPE svg PUBLIC "-//W3C//DTD SVG 1.1//EN" "http://www.w3.org/Graphics/SVG/1.1/DTD/svg11.dtd"><svg t="1750339081839" class="icon" viewBox="0 0 1024 1024" version="1.1" xmlns="http://www.w3.org/2000/svg" p-id="1671" xmlns:xlink="http://www.w3.org/1999/xlink" width="200" height="200"><path d="M204.8 512a307.2 307.2 0 1 0 614.4 0 307.2 307.2 0 1 0-614.4 0z" p-id="1672"></path><path d="M903.526 512a145.306 145.306 0 0 0-83.66-127.59 144.742 144.742 0 0 0-30.925-149.35 144.742 144.742 0 0 0-149.35-30.926A144.486 144.486 0 0 0 512 120.474a144.282 144.282 0 0 0-127.232 83.66 144.691 144.691 0 0 0-79.258-5.836 144.384 144.384 0 0 0-70.4 36.761 144.18 144.18 0 0 0-30.566 149.35A145.408 145.408 0 0 0 120.474 512a145.664 145.664 0 0 0 84.07 127.59 144.23 144.23 0 0 0 30.515 149.35 145.46 145.46 0 0 0 149.35 30.926A145.306 145.306 0 0 0 512 903.526a144.845 144.845 0 0 0 127.59-83.61A138.957 138.957 0 0 0 819.814 639.59 145.306 145.306 0 0 0 903.578 512zM463.565 707.789L316.21 557.67l55.603-56.934L460.8 591.36l189.082-209.92 57.856 54.528-244.173 271.77z" fill="#E2B719" p-id="1673"></path></svg>