<?xml version="1.0" standalone="no"?><!DOCTYPE svg PUBLIC "-//W3C//DTD SVG 1.1//EN" "http://www.w3.org/Graphics/SVG/1.1/DTD/svg11.dtd"><svg t="1750382316491" class="icon" viewBox="0 0 1024 1024" version="1.1" xmlns="http://www.w3.org/2000/svg" p-id="5687" xmlns:xlink="http://www.w3.org/1999/xlink" width="200" height="200"><path d="M481 94.6c55.4 0 100.2 44.9 100.2 100.2S536.4 295 481 295c-55.3 0-100.2-44.9-100.2-100.2S425.7 94.6 481 94.6z m31.9 551.5h84.7v-18h-84.7c-21.8 0-39.5 17.8-39.5 39.5v133.8L453 935.1h-76.9V642.5c-30.5-15.9-51.5-47.8-51.5-84.4V408.4c0-52.3 42.8-95.1 95.1-95.1h117.1c52.3 0 95.1 42.8 95.1 95.1v149.7c0 4.3-0.3 8.6-0.8 12.8v75.2h83.4c11.8 0 21.5 9.7 21.5 21.5v136c0 11.8-9.7 21.5-21.5 21.5H512.9c-11.8 0-21.5-9.7-21.5-21.5v-136c0-11.9 9.7-21.5 21.5-21.5z m137.2 62.7c0.2-2.5 0.3-4.4 0.3-5.6 0-8.9-2.3-15.8-6.9-20.9-4.7-5-11.6-8.1-20.9-9.3v-9.6h-13.9v9.6c-10.2 1.2-17.8 4.3-22.9 9.5-5.1 5.1-7.6 12.2-7.6 21.2 0 6.2 1.2 11.8 3.6 16.7 2.4 4.9 5.3 8.7 8.5 11.5 3.3 2.7 9.6 6.9 18.7 12.7 5.5 3.4 8.7 6.6 9.7 9.5 0.9 2.9 1.4 7.7 1.4 14.5 0 2.7-0.5 4.7-1.5 6.1-1 1.3-2.5 2-4.5 2-2.4 0-3.9-1-4.5-2.9-0.6-2-0.9-7-0.9-15.1v-7.3h-30.1v5.9c0 13.4 3 22.8 9 28.2 6 5.4 13 8.5 21.1 9.3v11.6h13.9v-11.3c10.3-1.5 18.1-5.2 23.3-11.3 5.2-6.1 7.8-14.5 7.8-25.2 0-6.7-1-12.3-2.9-16.8s-4.3-7.9-7-10.4c-2.8-2.4-8-6-15.6-10.6-9-5.5-14.4-9.1-16.2-11-1.9-1.9-2.8-5.2-2.8-9.9 0-2.8 0.5-4.9 1.4-6.4 0.9-1.4 2.3-2.1 4.1-2.1 2.3 0 3.7 0.8 4.4 2.5 0.7 1.6 1.1 5.1 1.1 10.4v5h29.9v-0.5z m-70 134.2h-67.2c-6.5 0-12.7-1.6-18.2-4.4l14.7 96.5H580V843z" fill="#d81e06" p-id="5688"></path></svg>