<?xml version="1.0" standalone="no"?><!DOCTYPE svg PUBLIC "-//W3C//DTD SVG 1.1//EN" "http://www.w3.org/Graphics/SVG/1.1/DTD/svg11.dtd"><svg t="1749826035561" class="icon" viewBox="0 0 1024 1024" version="1.1" xmlns="http://www.w3.org/2000/svg" p-id="4569" xmlns:xlink="http://www.w3.org/1999/xlink" width="200" height="200"><path d="M512 512m-307.2 0a307.2 307.2 0 1 0 614.4 0 307.2 307.2 0 1 0-614.4 0Z" fill="#000000" p-id="4570"></path><path d="M903.5264 512a145.3056 145.3056 0 0 0-83.6608-127.5904 144.7424 144.7424 0 0 0-30.9248-149.3504 144.7424 144.7424 0 0 0-149.3504-30.9248A144.4864 144.4864 0 0 0 512 120.4736a144.2816 144.2816 0 0 0-127.232 83.6608 144.6912 144.6912 0 0 0-79.2576-5.8368 144.384 144.384 0 0 0-70.4 36.7616 144.1792 144.1792 0 0 0-30.5664 149.3504A145.408 145.408 0 0 0 120.4736 512a145.664 145.664 0 0 0 84.0704 127.5904 144.2304 144.2304 0 0 0 30.5152 149.3504 145.4592 145.4592 0 0 0 149.3504 30.9248A145.3056 145.3056 0 0 0 512 903.5264a144.8448 144.8448 0 0 0 127.5904-83.6096 138.9568 138.9568 0 0 0 180.224-180.3264A145.3056 145.3056 0 0 0 903.5776 512z m-439.9616 195.7888l-147.3536-150.1184L371.8144 500.736 460.8 591.36l189.0816-209.92 57.856 54.528-244.1728 271.7696z" fill="#2B9BF0" p-id="4571"></path></svg>